# xmcd
#
# Track frame offsets:
#	150
#	19204
#	34860
#	54363
#	73659
#	91976
#	109916
#	130192
#	149895
#	169401
#	187994
#	205730
#	222017
#
# Disc length: 3226 seconds
#
# Revision: 4
# Processed by: cddbd v1.5.2PL0 Copyright (c) Steve Scherf et al.
# Submitted via: EasyCDDAExtractor 15.3.0.1
#
DISCID=c20c980d
DTITLE=Milly Quezada - ...Solo Faltas Tu
DYEAR=2008
DGENRE=Latin
TTITLE0=Yo Te Olvido
TTITLE1=Cheque Al Portador
TTITLE2=Ni Lo Intentes
TTITLE3=No Puedo Olvidarme De Ti
TTITLE4=Alegria En El Carnaval
TTITLE5=Si Te Olvidara (Featuring Miguel Vasquez)
TTITLE6=Lo Que Paso
TTITLE7=Cuando Se Quiere A Un Hombre Asi (Featuring Olga Tañon)
TTITLE8=Vamos A Tomarnos Un Cafe
TTITLE9=Quiero Hacerte El Amor (Featuring Frank Ceara)
TTITLE10=Dame Una Razon
TTITLE11=Solo Faltas Tu
TTITLE12=Ella (Bonus Track)
EXTD=
EXTT0=
EXTT1=
EXTT2=
EXTT3=
EXTT4=
EXTT5=
EXTT6=
EXTT7=
EXTT8=
EXTT9=
EXTT10=
EXTT11=
EXTT12=
PLAYORDER=
